<?xml version="1.0" encoding="utf-8"?>
<!-- Generator: Adobe Illustrator 19.0.0, SVG Export Plug-In . SVG Version: 6.00 Build 0)  -->
<svg version="1.1" id="Layer_1" xmlns="http://www.w3.org/2000/svg" xmlns:xlink="http://www.w3.org/1999/xlink" x="0px" y="0px"
	 width="770.3203125px" height="738.6877441px" viewBox="79 27.3122559 770.3203125 738.6877441"
	 style="enable-background:new 79 27.3122559 770.3203125 738.6877441;" xml:space="preserve">
<style type="text/css">
	.st0{fill:#161420;}
</style>
<path class="st0" d="M423.9489746,28.0213451c53.1707458-11.8932495,70.1738892,128.8492432,211.2061768,194.9329834
	c82.4794922,38.6475372,147.7866821,26.3746338,200.0919189,91.2858429
	c27.9623413,34.7014771,36.7989502,71.0071106,40.0858765,91.7811279
	c26.8427734,169.6516724-99.9516602,371.4454956-173.9060059,359.4700317
	c-48.128479-7.793457-39.6773071-101.6984863-156.2672729-203.5539551
	c-30.1339722-26.3256226-45.2009277-39.4884644-69.6385498-48.5510254
	c-115.9769897-43.0094604-217.897522,116.9453735-287.269165,59.6350098
	c-91.1327438-75.2879944-149.5126495-314.4775696-75.826004-360.0300293
	c50.1838837-31.0232544,122.7425995,63.2381439,195.7454834,29.4620361
	C393.5006714,202.9742889,366.2936401,40.9177055,423.9489746,28.0213451z"/>
</svg>
