<?xml version="1.0" encoding="utf-8"?>
<!-- Generator: Adobe Illustrator 19.0.0, SVG Export Plug-In . SVG Version: 6.00 Build 0)  -->
<svg version="1.1" id="Layer_1" xmlns="http://www.w3.org/2000/svg" xmlns:xlink="http://www.w3.org/1999/xlink" x="0px" y="0px"
	 width="1794.7388916px" height="1279.3162842px" viewBox="591 -243.3162842 1794.7388916 1279.3162842"
	 style="enable-background:new 591 -243.3162842 1794.7388916 1279.3162842;" xml:space="preserve">
<style type="text/css">
	.st0{fill:#161420;}
</style>
<path class="st0" d="M2385.7387695-243.3163147c-57.6577148,63.2997437-111.3955078,106.7405396-150.5744629,134.9954834
	c-45.6166992,32.8977661-70.8481445,44.742981-99.0097656,51.005127
	c-16.1013184,3.5803833-59.0637207,11.0955811-126.0126953-9.0009155
	c-100.1330566-30.0576782-106.0126953-77.4835815-183.0183105-108.0108032
	c-116.5917969-46.2203369-237.0625,9.3981934-255.0253906,18.00177
	c-88.5913086,42.432312-134.7275391,114.4052734-171.0170898,171.0171509
	c-57.9650879,90.4259644-52.769043,136.6083374-126.0126953,234.0233765
	c-35.7258301,47.5158081-53.588623,71.2737427-84.0083008,93.0092773
	c-140.9433594,100.7069092-297.4179077-19.2426147-471.0470581,66.0065918
	c-34.8547363,17.1131592-82.675293,48.5219116-129.0129395,111.0110779v516.0517578
	c21.5678711,1.5932617,54.2009277,2.4547119,93.0092773-3.0003662
	c182.4475098-25.6459351,220.855957-151.4679565,351.6762085-178.3151245
	c143.4233398-29.4335938,180.1625977,104.7851563,358.4821777,100.494873
	c148.6501465-3.576416,206.9868164-98.8647461,332.9833984-154.4921875
	c127.333252-56.2177124,329.4643555-74.4313965,658.5876465,91.0303955V-243.3163147z"/>
</svg>
