<?xml version="1.0" encoding="utf-8"?>
<!-- Generator: Adobe Illustrator 19.0.0, SVG Export Plug-In . SVG Version: 6.00 Build 0)  -->
<svg version="1.1" id="Layer_1" xmlns="http://www.w3.org/2000/svg" xmlns:xlink="http://www.w3.org/1999/xlink" x="0px" y="0px"
	 width="729.2594604px" height="849.5543213px" viewBox="59 -28.5543213 729.2594604 849.5543213"
	 style="enable-background:new 59 -28.5543213 729.2594604 849.5543213;" xml:space="preserve">
<style type="text/css">
	.st0{fill:#161420;}
</style>
<path class="st0" d="M788.2594604,756.5975952c-87.7318726,68.0714111-143.2366333,69.9014893-177.1759033,60.0400391
	c-56.5237427-16.4237061-58.1201782-66.6964722-128.4159241-89.2915039
	c-62.2717896-20.0159302-126.7388-1.7578125-158.9920654,7.4996338
	c-59.0101013,16.9372559-60.7374573,33.6948242-107.9945831,38.9980469
	c-18.2736664,2.0506592-91.9318848,10.3165894-131.6475372-36.8484497
	c-4.6121216-5.4771729-29.4541397-36.2698975-24.3446732-75.6459351
	c10.601593-81.7009888,137.1094055-99.8607178,139.493042-179.9910278
	c0.3064575-10.302124-1.5649567-17.3873291-4.4997864-28.4985657
	C172.1360016,367.5004883,84.0464325,352.0089111,80.6877289,292.3678589
	c-1.3092194-23.2479248,10.9303894-41.2246704,13.499321-44.9977417
	c36.184227-53.1449585,115.8493118-16.5128784,162.9393921-59.128418
	c52.2764587-47.3091431-5.9031982-131.9833374,39.5737-173.9129639
	c46.7987366-43.1483154,133.8138733,22.5685425,270.3834229,20.3088989
	c96.539856-1.5973511,173.732605-36.4324341,221.1759033-63.1919556V756.5975952z"/>
</svg>
