<?xml version="1.0" encoding="utf-8"?>
<!-- Generator: Adobe Illustrator 19.0.0, SVG Export Plug-In . SVG Version: 6.00 Build 0)  -->
<svg version="1.1" id="Layer_1" xmlns="http://www.w3.org/2000/svg" xmlns:xlink="http://www.w3.org/1999/xlink" x="0px" y="0px"
	 width="268.7070007px" height="643.7069702px" viewBox="-171 75.2930298 268.7070007 643.7069702"
	 style="enable-background:new -171 75.2930298 268.7070007 643.7069702;" xml:space="preserve">
<style type="text/css">
	.st0{opacity:0.2;}
	.st1{fill:#fff;}
</style>
<g id="XMLID_67_" class="st0">
	<g id="XMLID_47_">
		<g id="XMLID_46_">
			<circle id="XMLID_39_" class="st1" cx="-166.6464844" cy="79.6464996" r="4.353498"/>
			<circle id="XMLID_38_" class="st1" cx="-117.6464844" cy="79.6464996" r="4.353498"/>
			<circle id="XMLID_37_" class="st1" cx="-117.6464844" cy="128.6464996" r="4.3534966"/>
			<circle id="XMLID_36_" class="st1" cx="-166.6464844" cy="128.6464996" r="4.3534966"/>
			<circle id="XMLID_32_" class="st1" cx="-117.6464844" cy="177.6464996" r="4.3535004"/>
			<circle id="XMLID_31_" class="st1" cx="-166.6464844" cy="177.6464996" r="4.3535004"/>
			<circle id="XMLID_35_" class="st1" cx="-117.6464844" cy="226.6464996" r="4.3535004"/>
			<circle id="XMLID_34_" class="st1" cx="-166.6464844" cy="226.6464996" r="4.3535004"/>
		</g>
		<g id="XMLID_45_">
			<circle id="XMLID_44_" class="st1" cx="-68.6464844" cy="177.6464996" r="4.3535004"/>
			<circle id="XMLID_43_" class="st1" cx="-19.6464844" cy="177.6464996" r="4.3535004"/>
			<circle id="XMLID_42_" class="st1" cx="-19.6464844" cy="226.6464996" r="4.3535004"/>
			<circle id="XMLID_41_" class="st1" cx="-68.6464844" cy="226.6464996" r="4.3535004"/>
			<circle id="XMLID_40_" class="st1" cx="-19.6464844" cy="275.6464844" r="4.3535004"/>
			<circle id="XMLID_33_" class="st1" cx="-68.6464844" cy="275.6464844" r="4.3535004"/>
			<circle id="XMLID_30_" class="st1" cx="-19.6464844" cy="324.6464844" r="4.3535004"/>
			<circle id="XMLID_29_" class="st1" cx="-68.6464844" cy="324.6464844" r="4.3535004"/>
		</g>
	</g>
	<g id="XMLID_48_">
		<g id="XMLID_58_">
			<circle id="XMLID_66_" class="st1" cx="-53.6464844" cy="469.6464844" r="4.3534851"/>
			<circle id="XMLID_65_" class="st1" cx="-4.6464844" cy="469.6464844" r="4.3534851"/>
			<circle id="XMLID_64_" class="st1" cx="-4.6464844" cy="518.6464844" r="4.3534851"/>
			<circle id="XMLID_63_" class="st1" cx="-53.6464844" cy="518.6464844" r="4.3534851"/>
			<circle id="XMLID_62_" class="st1" cx="-4.6464844" cy="567.6464844" r="4.3534851"/>
			<circle id="XMLID_61_" class="st1" cx="-53.6464844" cy="567.6464844" r="4.3534851"/>
			<circle id="XMLID_60_" class="st1" cx="-4.6464844" cy="616.6464844" r="4.3535156"/>
			<circle id="XMLID_59_" class="st1" cx="-53.6464844" cy="616.6464844" r="4.3535156"/>
		</g>
		<g id="XMLID_49_">
			<circle id="XMLID_57_" class="st1" cx="44.3535156" cy="567.6464844" r="4.3534851"/>
			<circle id="XMLID_56_" class="st1" cx="93.3535004" cy="567.6464844" r="4.3534851"/>
			<circle id="XMLID_55_" class="st1" cx="93.3535004" cy="616.6464844" r="4.3535156"/>
			<circle id="XMLID_54_" class="st1" cx="44.3535156" cy="616.6464844" r="4.3535156"/>
			<circle id="XMLID_53_" class="st1" cx="93.3535004" cy="665.6464844" r="4.3535156"/>
			<circle id="XMLID_52_" class="st1" cx="44.3535156" cy="665.6464844" r="4.3535156"/>
			<circle id="XMLID_51_" class="st1" cx="93.3535004" cy="714.6464844" r="4.3535156"/>
			<circle id="XMLID_50_" class="st1" cx="44.3535156" cy="714.6464844" r="4.3535156"/>
		</g>
	</g>
</g>
</svg>
