<?xml version="1.0" encoding="utf-8"?>
<!-- Generator: Adobe Illustrator 19.0.0, SVG Export Plug-In . SVG Version: 6.00 Build 0)  -->
<svg version="1.1" id="Layer_1" xmlns="http://www.w3.org/2000/svg" xmlns:xlink="http://www.w3.org/1999/xlink" x="0px" y="0px"
	 width="300px" height="300px" viewBox="-155 247 300 300" style="enable-background:new -155 247 300 300;" xml:space="preserve">
<style type="text/css">
	.st0{fill:#0A1219;}
	.st1{fill:none;stroke:#4529ED;stroke-width:10;stroke-linecap:round;stroke-linejoin:round;stroke-miterlimit:10;}
</style>
<g>
	<g id="XMLID_9_">
		<path id="XMLID_12_" class="st0" d="M-5,422.0166626l-19.0111618-10.4617615
			c-7.9042091-4.3496399-14.875515-10.211792-20.5168304-17.2525024l-0.0000229-0.0000305
			c-9.7774734-12.2028809-15.10532-27.3730164-15.10532-43.0098267v-40.375885h2.7500191
			c8.8089333,0,15.9499817-7.1410522,15.9499817-15.9499817l0,0H-5h35.9333344l0,0
			c0,8.8089294,7.1410522,15.9499817,15.9499817,15.9499817h2.7500191v40.375885
			c0,15.6368103-5.3278465,30.8069458-15.10532,43.0098267l-0.0000229,0.0000305
			c-5.6413155,7.0407104-12.6126213,12.9028625-20.5168304,17.2525024C14.0111628,411.5549011-5,422.0166626-5,422.0166626z"/>
		<path id="XMLID_11_" class="st1" d="M-5,422.0166626l-19.0111618-10.4617615
			c-7.9042091-4.3496399-14.875515-10.211792-20.5168304-17.2525024l-0.0000229-0.0000305
			c-9.7774734-12.2028809-15.10532-27.3730164-15.10532-43.0098267v-40.375885h2.7500191
			c8.8089333,0,15.9499817-7.1410522,15.9499817-15.9499817l0,0H-5h35.9333344l0,0
			c0,8.8089294,7.1410522,15.9499817,15.9499817,15.9499817h2.7500191v40.375885
			c0,15.6368103-5.3278465,30.8069458-15.10532,43.0098267l-0.0000229,0.0000305
			c-5.6413155,7.0407104-12.6126213,12.9028625-20.5168304,17.2525024C14.0111628,411.5549011-5,422.0166626-5,422.0166626z"/>
		<polygon id="XMLID_10_" class="st1" points="-29.7976418,354.821106 -13.1195908,371.4991455 19.7976151,338.5819397 
			-13.1195908,371.4991455 		"/>
	</g>
	<g id="XMLID_4_">
		<path id="XMLID_8_" class="st1" d="M72.3667526,336.2332458h5.8934021c6.2627716,0,11.3397522,5.0769958,11.3397522,11.3397522
			v110.3936768V347.572998c0-6.2627563-5.0769806-11.3397522-11.3397522-11.3397522H72.3667526"/>
		<path id="XMLID_7_" class="st1" d="M127,473.3666687h-264v1.5097351c0,13.3414917,10.8154221,24.1569214,24.156929,24.1569214
			h215.686142c13.341507,0,24.156929-10.8154297,24.156929-24.1569214V473.3666687z"/>
		<path id="XMLID_6_" class="st1" d="M-82.3666687,320.833252h-14.5149918
			c-10.0065308,0-18.1184311,8.1118774-18.1184311,18.1184387v134.414978h220v-134.414978
			c0-10.0065613-8.1119003-18.1184387-18.1184311-18.1184387H72.3667526"/>
		<path id="XMLID_5_" class="st1" d="M-82.3666687,336.2332458h-5.8933945c-6.2629242,0-11.3400269,5.0770874-11.3400269,11.3400269
			v110.3934021V347.5732727c0-6.2629395,5.0771027-11.3400269,11.3400269-11.3400269H-82.3666687"/>
	</g>
</g>
</svg>
