<?xml version="1.0" encoding="utf-8"?>
<!-- Generator: Adobe Illustrator 19.0.0, SVG Export Plug-In . SVG Version: 6.00 Build 0)  -->
<svg version="1.1" id="Layer_1" xmlns="http://www.w3.org/2000/svg" xmlns:xlink="http://www.w3.org/1999/xlink" x="0px" y="0px"
	 width="300px" height="300px" viewBox="-155 247 300 300" style="enable-background:new -155 247 300 300;" xml:space="preserve">
<style type="text/css">
	.st0{fill:none;stroke:#4529ed;stroke-width:10;stroke-linecap:round;stroke-linejoin:round;stroke-miterlimit:10;}
	.st1{fill:#0A1219;}
</style>
<g id="XMLID_3_">
	<g id="XMLID_11_">
		<circle id="XMLID_17_" class="st0" cx="-4.9999824" cy="397" r="132"/>
		<path id="XMLID_16_" class="st0" d="M82.6881943,298.368042c-23.3178902-20.7455139-54.0225906-33.3681335-87.688179-33.3681335
			s-64.370285,12.6226196-87.688179,33.3681335c23.317894,13.4909668,54.0225945,21.6995544,87.688179,21.6995544
			S59.3703041,311.8590088,82.6881943,298.368042z"/>
		<path id="XMLID_15_" class="st0" d="M-92.6881638,495.631958c23.317894,20.7454834,54.0225945,33.3681641,87.688179,33.3681641
			s64.370285-12.6226807,87.688179-33.3681641c-23.3178902-13.4909668-54.0225906-21.6995544-87.688179-21.6995544
			S-69.3702698,482.1409912-92.6881638,495.631958z"/>
		<ellipse id="XMLID_14_" class="st0" cx="-4.9999824" cy="397" rx="71.2638016" ry="132"/>
		<path id="XMLID_13_" class="st0" d="M-136.9999847,397h264H-136.9999847z"/>
		<path id="XMLID_12_" class="st0" d="M-4.9999824,529V265V529z"/>
	</g>
	<g id="XMLID_4_">
		<path id="XMLID_10_" class="st0" d="M59.3841629,471.8337708v-17.3656921
			c0-10.6003113,8.5932693-19.1936035,19.1936111-19.1936035h0.0000381c10.6003342,0,19.1936111,8.5932922,19.1936111,19.1936035
			v17.3656921"/>
		<path id="XMLID_9_" class="st1" d="M115.0355301,482.9031067v32.4971619c0,6.1134033-4.9559097,11.0693359-11.0693436,11.0693359
			H53.1893921c-6.1134262,0-11.0693398-4.9559326-11.0693398-11.0693359v-32.4971619
			c0-6.1134033,4.9559135-11.0693359,11.0693398-11.0693359h50.7767944
			C110.0796204,471.8337708,115.0355301,476.7897034,115.0355301,482.9031067z"/>
		<path id="XMLID_8_" class="st0" d="M115.0355301,482.9031067v32.4971619c0,6.1134033-4.9559097,11.0693359-11.0693436,11.0693359
			H53.1893921c-6.1134262,0-11.0693398-4.9559326-11.0693398-11.0693359v-32.4971619
			c0-6.1134033,4.9559135-11.0693359,11.0693398-11.0693359h50.7767944
			C110.0796204,471.8337708,115.0355301,476.7897034,115.0355301,482.9031067z"/>
		<g id="XMLID_5_">
			<circle id="XMLID_7_" class="st0" cx="78.5777893" cy="491.4844055" r="6.4486532"/>
			<path id="XMLID_6_" class="st0" d="M78.5777893,497.9330444v8.8351746V497.9330444z"/>
		</g>
	</g>
</g>
</svg>
