<?xml version="1.0" encoding="utf-8"?>
<!-- Generator: Adobe Illustrator 19.0.0, SVG Export Plug-In . SVG Version: 6.00 Build 0)  -->
<svg version="1.1" id="Layer_1" xmlns="http://www.w3.org/2000/svg" xmlns:xlink="http://www.w3.org/1999/xlink" x="0px" y="0px"
	 width="300px" height="300px" viewBox="-155 247 300 300" style="enable-background:new -155 247 300 300;" xml:space="preserve">
<style type="text/css">
	.st0{fill:none;stroke:#4529ED;stroke-width:10;stroke-linecap:round;stroke-linejoin:round;stroke-miterlimit:10;}
	.st1{fill:#000D16;}
</style>
<g>
	<g>
		<path class="st0" d="M-15.1057911,265c-9.6000004,7.7000122-24.0000019,17.2000122-43.3000031,24.1000061
			c-25.3999939,9.1000061-47.5999908,9.2999878-60.6999969,8.3999939c-5.0999985,20.5-11.3000031,57.7000122,0,101
			c20.8000031,79.5,84.7999954,119.7000122,104,130.5c19.2000008-10.7999878,83.1999969-51,104-130.5
			c11.3000031-43.2999878,5.0999985-80.5,0-101c-13.0999985,0.8999939-35.3000031,0.6000061-60.7000046-8.3999939
			C8.8942089,282.2000122-5.5057912,272.7000122-15.1057911,265z"/>
		<g>
			<line class="st0" x1="-124.3057861" y1="327" x2="-15.1057911" y2="283.7999878"/>
			<line class="st0" x1="-15.1057911" y1="310.8999939" x2="-125.3057861" y2="354.5"/>
			<line class="st0" x1="-41.5057907" y1="511.5" x2="-15.1057911" y2="501.1000061"/>
			<line class="st0" x1="-122.8057861" y1="380.7000122" x2="-15.1057911" y2="338.1000061"/>
			<line class="st0" x1="-116.9057922" y1="405.6000061" x2="-15.1057911" y2="365.2000122"/>
			<line class="st0" x1="-108.1057892" y1="429.2000122" x2="-15.1057911" y2="392.3999939"/>
			<line class="st0" x1="-96.2057877" y1="451.7000122" x2="-15.1057911" y2="419.6000061"/>
			<line class="st0" x1="-81.2057877" y1="472.8999939" x2="-15.1057911" y2="446.7000122"/>
			<line class="st0" x1="-63.0057945" y1="492.8999939" x2="-15.1057911" y2="473.8999939"/>
		</g>
		<line class="st0" x1="-15.1057911" y1="265" x2="-15.1057911" y2="529"/>
	</g>
	<g>
		<circle class="st1" cx="67.4505157" cy="469.1001587" r="48.0114059"/>
		<circle class="st0" cx="67.4505157" cy="469.1001587" r="48.0114059"/>
		<polygon class="st0" points="41.7382469,468.8726196 59.0314522,486.1658325 93.1627808,452.0344849 59.0314522,486.1658325 		"/>
	</g>
</g>
</svg>
