<?xml version="1.0" encoding="utf-8"?>
<!-- Generator: Adobe Illustrator 19.0.0, SVG Export Plug-In . SVG Version: 6.00 Build 0)  -->
<svg version="1.1" id="Layer_1" xmlns="http://www.w3.org/2000/svg" xmlns:xlink="http://www.w3.org/1999/xlink" x="0px" y="0px"
	 width="300px" height="300px" viewBox="-155 247 300 300" style="enable-background:new -155 247 300 300;" xml:space="preserve">
<style type="text/css">
	.st0{fill:#4529ed;}
	.st1{fill:#0A1219;}
	.st2{fill:none;stroke:#4529ed;stroke-width:10;stroke-linecap:round;stroke-linejoin:round;stroke-miterlimit:10;}
</style>
<g>
	<g>
		<polygon class="st0" points="-121.476944,287.7236328 -125.5472946,287.7236328 -136.3374939,292.2672729 
			-136.3374939,296.1479187 -125.5472946,291.6042786 -125.5472946,329.0871582 -136.3374939,329.0871582 -136.3374939,332.967804 
			-110.6867371,332.967804 -110.6867371,329.0871582 -121.476944,329.0871582 		"/>
		<path class="st0" d="M-101.6300964,330.348938c1.0093079,1.0097961,2.1925201,1.8041992,3.5491409,2.3822327
			c1.3566208,0.5785217,2.8026581,0.8675232,4.3381119,0.8675232h1.9247589c1.5354614,0,2.9760666-0.2890015,4.3227997-0.8675232
			c1.3457565-0.5780334,2.524025-1.3724365,3.5333405-2.3822327c1.0098038-1.0093079,1.8032227-2.1871033,2.3822327-3.5333557
			c0.5780182-1.3462219,0.8675232-2.7868347,0.8675232-4.3227844v-24.2941589c0-1.5349426-0.289505-2.9760437-0.8675232-4.3222961
			c-0.57901-1.3462524-1.3724289-2.5240173-2.3822327-3.5338135c-1.0093155-1.0098267-2.1875839-1.8032227-3.5333405-2.3822327
			c-1.3467331-0.5780334-2.7873383-0.8675232-4.3227997-0.8675232h-1.9247589c-1.5354538,0-2.9814911,0.2894897-4.3381119,0.8675232
			c-1.3566208,0.57901-2.5398331,1.372406-3.5491409,2.3822327c-1.0098114,1.0097961-1.8042145,2.187561-2.3822403,3.5338135
			c-0.5790024,1.3462524-0.8675232,2.7873535-0.8675232,4.3222961v24.2941589c0,1.5359497,0.2885208,2.9765625,0.8675232,4.3227844
			C-103.4343109,328.1618347-102.6399078,329.3396301-101.6300964,330.348938z M-100.8100052,298.1986389
			c0-1.0097961,0.1892166-1.9509277,0.5681381-2.8238831c0.3784332-0.872467,0.899147-1.6352539,1.5616455-2.287384
			c0.6624985-0.6516418,1.4302292-1.1673889,2.3031921-1.5458374c0.8724594-0.3789063,1.8140945-0.5681458,2.8238983-0.5681458
			h1.5458298c1.0098114,0,1.950943,0.1892395,2.8239059,0.5681458c0.8724594,0.3784485,1.6352539,0.8941956,2.2873764,1.5458374
			c0.6516342,0.6521301,1.1674042,1.414917,1.5458374,2.287384c0.3789215,0.8729553,0.5681381,1.8140869,0.5681381,2.8238831
			v24.2941589c0,1.0097961-0.1892166,1.9514465-0.5681381,2.8238831c-0.3784332,0.8729858-0.8942032,1.6407166-1.5458374,2.3031921
			c-0.6521225,0.6625061-1.414917,1.1832275-2.2873764,1.5616455c-0.872963,0.3789368-1.8140945,0.5681458-2.8239059,0.5681458
			h-1.5458298c-1.0098038,0-1.9514389-0.189209-2.8238983-0.5681458c-0.872963-0.378418-1.6406937-0.8991394-2.3031921-1.5616455
			c-0.6624985-0.6624756-1.1832123-1.4302063-1.5616455-2.3031921c-0.3789215-0.8724365-0.5681381-1.8140869-0.5681381-2.8238831
			V298.1986389z"/>
		<polygon class="st0" points="-57.4258766,287.7236328 -61.4962273,287.7236328 -72.2864304,292.2672729 -72.2864304,296.1479187 
			-61.4962273,291.6042786 -61.4962273,329.0871582 -72.2864304,329.0871582 -72.2864304,332.967804 -46.6356697,332.967804 
			-46.6356697,329.0871582 -57.4258766,329.0871582 		"/>
		<path class="st0" d="M-37.5790329,330.348938c1.0093117,1.0097961,2.192524,1.8041992,3.5491447,2.3822327
			c1.356617,0.5785217,2.8026562,0.8675232,4.3381157,0.8675232h1.924757c1.5354595,0,2.9760647-0.2890015,4.3228016-0.8675232
			c1.3457508-0.5780334,2.5240231-1.3724365,3.5333347-2.3822327c1.0098057-1.0093079,1.8032246-2.1871033,2.3822346-3.5333557
			c0.5780201-1.3462219,0.8675232-2.7868347,0.8675232-4.3227844v-24.2941589c0-1.5349426-0.2895031-2.9760437-0.8675232-4.3222961
			c-0.57901-1.3462524-1.3724289-2.5240173-2.3822346-3.5338135c-1.0093117-1.0098267-2.1875839-1.8032227-3.5333347-2.3822327
			c-1.3467369-0.5780334-2.7873421-0.8675232-4.3228016-0.8675232h-1.924757c-1.5354595,0-2.9814987,0.2894897-4.3381157,0.8675232
			c-1.3566208,0.57901-2.5398331,1.372406-3.5491447,2.3822327c-1.0098038,1.0097961-1.8042145,2.187561-2.3822327,3.5338135
			c-0.57901,1.3462524-0.8675232,2.7873535-0.8675232,4.3222961v24.2941589c0,1.5359497,0.2885132,2.9765625,0.8675232,4.3227844
			C-39.3832474,328.1618347-38.5888367,329.3396301-37.5790329,330.348938z M-36.758934,298.1986389
			c0-1.0097961,0.1892128-1.9509277,0.5681381-2.8238831c0.3784294-0.872467,0.8991432-1.6352539,1.5616417-2.287384
			c0.6625023-0.6516418,1.430233-1.1673889,2.3031883-1.5458374c0.872467-0.3789063,1.8140965-0.5681458,2.8239021-0.5681458
			h1.5458336c1.0098076,0,1.950943,0.1892395,2.8239002,0.5681458c0.8724651,0.3784485,1.6352539,0.8941956,2.2873802,1.5458374
			c0.6516323,0.6521301,1.1674042,1.414917,1.5458336,2.287384c0.3789253,0.8729553,0.56814,1.8140869,0.56814,2.8238831v24.2941589
			c0,1.0097961-0.1892147,1.9514465-0.56814,2.8238831c-0.3784294,0.8729858-0.8942013,1.6407166-1.5458336,2.3031921
			c-0.6521263,0.6625061-1.4149151,1.1832275-2.2873802,1.5616455c-0.8729572,0.3789368-1.8140926,0.5681458-2.8239002,0.5681458
			h-1.5458336c-1.0098057,0-1.9514351-0.189209-2.8239021-0.5681458c-0.8729553-0.378418-1.640686-0.8991394-2.3031883-1.5616455
			c-0.6624985-0.6624756-1.1832123-1.4302063-1.5616417-2.3031921c-0.3789253-0.8724365-0.5681381-1.8140869-0.5681381-2.8238831
			V298.1986389z"/>
		<polygon class="st0" points="6.6251912,287.7236328 2.5563238,287.7236328 -8.23487,292.2672729 -8.23487,296.1479187 
			2.5563238,291.6042786 2.5563238,329.0871582 -8.23487,329.0871582 -8.23487,332.967804 17.4149036,332.967804 
			17.4149036,329.0871582 6.6251912,329.0871582 		"/>
		<path class="st0" d="M26.4715424,330.348938c1.0098057,1.0097961,2.193512,1.8041992,3.5501308,2.3822327
			c1.3566189,0.5785217,2.8021641,0.8675232,4.3376217,0.8675232h1.9247589c1.5354576,0,2.9760628-0.2890015,4.3227997-0.8675232
			c1.3457527-0.5780334,2.5235291-1.3724365,3.5333366-2.3822327c1.0098038-1.0093079,1.8032227-2.1871033,2.3822327-3.5333557
			c0.578022-1.3462219,0.8675232-2.7868347,0.8675232-4.3227844v-24.2941589c0-1.5349426-0.2895012-2.9760437-0.8675232-4.3222961
			c-0.57901-1.3462524-1.3724289-2.5240173-2.3822327-3.5338135c-1.0098076-1.0098267-2.1875839-1.8032227-3.5333366-2.3822327
			c-1.3467369-0.5780334-2.7873421-0.8675232-4.3227997-0.8675232h-1.9247589c-1.5354576,0-2.9810028,0.2894897-4.3376217,0.8675232
			c-1.3566189,0.57901-2.5403252,1.372406-3.5501308,2.3822327c-1.0098076,1.0097961-1.8032265,2.187561-2.3822346,3.5338135
			c-0.5780201,1.3462524-0.8675251,2.7873535-0.8675251,4.3222961v24.2941589c0,1.5359497,0.289505,2.9765625,0.8675251,4.3227844
			C24.6683159,328.1618347,25.4617348,329.3396301,26.4715424,330.348938z M27.2916393,298.1986389
			c0-1.0097961,0.1897087-1.9509277,0.56814-2.8238831c0.3784294-0.872467,0.8991413-1.6352539,1.5621357-2.287384
			c0.6620064-0.6516418,1.4297352-1.1673889,2.3031883-1.5458374c0.8724651-0.3789063,1.8140965-0.5681458,2.8239002-0.5681458
			h1.5453415c1.0098038,0,1.9514351,0.1892395,2.8238983,0.5681458c0.873455,0.3784485,1.6352539,0.8941956,2.2873802,1.5458374
			c0.6521263,0.6521301,1.1678963,1.414917,1.5463295,2.287384c0.3784294,0.8729553,0.5681381,1.8140869,0.5681381,2.8238831
			v24.2941589c0,1.0097961-0.1897087,1.9514465-0.5681381,2.8238831c-0.3784332,0.8729858-0.8942032,1.6407166-1.5463295,2.3031921
			c-0.6521263,0.6625061-1.4139252,1.1832275-2.2873802,1.5616455c-0.8724632,0.3789368-1.8140945,0.5681458-2.8238983,0.5681458
			h-1.5453415c-1.0098038,0-1.9514351-0.189209-2.8239002-0.5681458c-0.8734531-0.378418-1.6411819-0.8991394-2.3031883-1.5616455
			c-0.6629944-0.6624756-1.1837063-1.4302063-1.5621357-2.3031921c-0.3784313-0.8724365-0.56814-1.8140869-0.56814-2.8238831
			V298.1986389z"/>
		<polygon class="st0" points="70.675766,329.0871582 70.675766,287.7236328 66.6059113,287.7236328 55.8152084,292.2672729 
			55.8152084,296.1479187 66.6059113,291.6042786 66.6059113,329.0871582 55.8152084,329.0871582 55.8152084,332.967804 
			81.465477,332.967804 81.465477,329.0871582 		"/>
		<path class="st0" d="M-133.7502441,394.9651794c1.0093079,1.0097961,2.1925201,1.8041992,3.5491486,2.3822327
			c1.3566132,0.57901,2.8026581,0.8675232,4.3381119,0.8675232h1.9247589c1.5354614,0,2.9760666-0.2885132,4.3227997-0.8675232
			c1.3457489-0.5780334,2.524025-1.3724365,3.5333328-2.3822327c1.0098114-1.0088196,1.8032303-2.186615,2.3822403-3.5333252
			c0.5780182-1.3462524,0.8675232-2.7868652,0.8675232-4.3228149v-24.2941284c0-1.5349731-0.289505-2.9760742-0.8675232-4.3223267
			c-0.57901-1.3462524-1.3724289-2.5240173-2.3822403-3.5338135c-1.0093079-1.0098267-2.1875839-1.8032227-3.5333328-2.3822327
			c-1.3467331-0.5780334-2.7873383-0.8675232-4.3227997-0.8675232h-1.9247589c-1.5354538,0-2.9814987,0.2894897-4.3381119,0.8675232
			c-1.3566284,0.57901-2.5398407,1.372406-3.5491486,2.3822327c-1.0098114,1.0097961-1.8042145,2.187561-2.3822327,3.5338135
			C-136.7114868,359.8388367-137,361.2799377-137,362.8149109v24.2941284c0,1.5359497,0.2885132,2.9765625,0.8675232,4.3228149
			C-135.5544586,392.7785645-134.7600555,393.9563599-133.7502441,394.9651794z M-132.9301453,362.8149109
			c0-1.0098267,0.189209-1.9509583,0.5681458-2.8239136c0.378418-0.872467,0.8991394-1.6352539,1.5616302-2.287384
			c0.6625061-0.6516418,1.4302368-1.1673889,2.3031921-1.5458374c0.872467-0.3789063,1.8140945-0.5681458,2.8239059-0.5681458
			h1.5458298c1.0098114,0,1.950943,0.1892395,2.8239059,0.5681458c0.8724594,0.3784485,1.6352539,0.8941956,2.2873764,1.5458374
			c0.6516342,0.6521301,1.1674042,1.414917,1.5458298,2.287384c0.3789291,0.8729553,0.5681458,1.8140869,0.5681458,2.8239136
			v24.2941284c0,1.0097961-0.1892166,1.9514465-0.5681458,2.8239136c-0.3784256,0.8729553-0.8941956,1.640686-1.5458298,2.3031616
			c-0.6521225,0.6629944-1.414917,1.1837158-2.2873764,1.5621643c-0.872963,0.378418-1.8140945,0.5681152-2.8239059,0.5681152
			h-1.5458298c-1.0098114,0-1.9514389-0.1896973-2.8239059-0.5681152c-0.8729553-0.3784485-1.640686-0.8991699-2.3031921-1.5621643
			c-0.6624908-0.6624756-1.1832123-1.4302063-1.5616302-2.3031616c-0.3789368-0.872467-0.5681458-1.8141174-0.5681458-2.8239136
			V362.8149109z"/>
		<polygon class="st0" points="-89.5460205,352.3398743 -93.6163712,352.3398743 -104.4065704,356.8835144 
			-104.4065704,360.7641602 -93.6163712,356.22052 -93.6163712,393.7033997 -104.4065704,393.7033997 -104.4065704,397.5845337 
			-78.7558136,397.5845337 -78.7558136,393.7033997 -89.5460205,393.7033997 		"/>
		<path class="st0" d="M-69.699173,394.9651794c1.0093079,1.0097961,2.1925278,1.8041992,3.5491409,2.3822327
			c1.3566208,0.57901,2.8026581,0.8675232,4.3381195,0.8675232h1.9247551c1.5354614,0,2.9760628-0.2885132,4.3228035-0.8675232
			c1.3457489-0.5780334,2.5240211-1.3724365,3.5333328-2.3822327c1.0098076-1.0088196,1.8032265-2.186615,2.3822327-3.5333252
			c0.578022-1.3462524,0.867527-2.7868652,0.867527-4.3228149v-24.2941284c0-1.5349731-0.289505-2.9760742-0.867527-4.3223267
			c-0.5790062-1.3462524-1.3724251-2.5240173-2.3822327-3.5338135c-1.0093117-1.0098267-2.1875839-1.8032227-3.5333328-2.3822327
			c-1.3467407-0.5780334-2.7873421-0.8675232-4.3228035-0.8675232h-1.9247551c-1.5354614,0-2.9814987,0.2894897-4.3381195,0.8675232
			c-1.3566132,0.57901-2.5398331,1.372406-3.5491409,2.3822327c-1.0098038,1.0097961-1.8042145,2.187561-2.3822327,3.5338135
			c-0.57901,1.3462524-0.8675232,2.7873535-0.8675232,4.3223267v24.2941284c0,1.5359497,0.2885132,2.9765625,0.8675232,4.3228149
			C-71.5033875,392.7785645-70.7089767,393.9563599-69.699173,394.9651794z M-68.8790741,362.8149109
			c0-1.0098267,0.189209-1.9509583,0.5681381-2.8239136c0.3784256-0.872467,0.8991394-1.6352539,1.5616455-2.287384
			c0.6624985-0.6516418,1.4302292-1.1673889,2.3031845-1.5458374c0.8724632-0.3789063,1.8140945-0.5681458,2.8239021-0.5681458
			h1.5458336c1.0098038,0,1.9509392,0.1892395,2.8238983,0.5681458c0.872467,0.3784485,1.6352539,0.8941956,2.2873802,1.5458374
			c0.6516304,0.6521301,1.1674042,1.414917,1.5458336,2.287384c0.3789253,0.8729553,0.5681419,1.8140869,0.5681419,2.8239136
			v24.2941284c0,1.0097961-0.1892166,1.9514465-0.5681419,2.8239136c-0.3784294,0.8729553-0.8942032,1.640686-1.5458336,2.3031616
			c-0.6521263,0.6629944-1.4149132,1.1837158-2.2873802,1.5621643c-0.8729591,0.378418-1.8140945,0.5681152-2.8238983,0.5681152
			h-1.5458336c-1.0098076,0-1.9514389-0.1896973-2.8239021-0.5681152c-0.8729553-0.3784485-1.640686-0.8991699-2.3031845-1.5621643
			c-0.6625061-0.6624756-1.1832199-1.4302063-1.5616455-2.3031616c-0.3789291-0.872467-0.5681381-1.8141174-0.5681381-2.8239136
			V362.8149109z"/>
		<polygon class="st0" points="-25.4949493,352.3398743 -29.5653,352.3398743 -40.3555069,356.8835144 -40.3555069,360.7641602 
			-29.5653,356.22052 -29.5653,393.7033997 -40.3555069,393.7033997 -40.3555069,397.5845337 -14.7047443,397.5845337 
			-14.7047443,393.7033997 -25.4949493,393.7033997 		"/>
		<path class="st0" d="M-5.6476116,394.9651794c1.0088181,1.0097961,2.1925247,1.8041992,3.5501313,2.3822327
			c1.3556304,0.57901,2.8021631,0.8675232,4.3376222,0.8675232h1.924758c1.535459,0,2.9760633-0.2885132,4.3218136-0.8675232
			c1.3457489-0.5780334,2.5235271-1.3724365,3.5333338-2.3822327c1.0098066-1.0088196,1.8042135-2.186615,2.3832216-3.5333252
			c0.5770321-1.3462524,0.8675251-2.7868652,0.8675251-4.3228149v-24.2941284c0-1.5349731-0.290493-2.9760742-0.8675251-4.3223267
			c-0.5790081-1.3462524-1.373415-2.5240173-2.3832216-3.5338135c-1.0098066-1.0098267-2.1875849-1.8032227-3.5333338-2.3822327
			c-1.3457503-0.5780334-2.7863545-0.8675232-4.3218136-0.8675232h-1.924758c-1.535459,0-2.9819918,0.2894897-4.3376222,0.8675232
			c-1.3576066,0.57901-2.5413132,1.372406-3.5501313,2.3822327c-1.0098062,1.0097961-1.8042135,2.187561-2.3822336,3.5338135
			c-0.5790091,1.3462524-0.8675251,2.7873535-0.8675251,4.3223267v24.2941284c0,1.5359497,0.288516,2.9765625,0.8675251,4.3228149
			C-7.4518251,392.7785645-6.6574178,393.9563599-5.6476116,394.9651794z M-4.8285027,362.8149109
			c0-1.0098267,0.1897092-1.9509583,0.5691276-2.8239136c0.3774424-0.872467,0.8991427-1.6352539,1.5611489-2.287384
			c0.6620061-0.6516418,1.4307237-1.1673889,2.3041766-1.5458374c0.8714767-0.3789063,1.8140943-0.5681458,2.8239007-0.5681458
			h1.5453396c1.0098066,0,1.950448,0.1892395,2.8239007,0.5681458c0.8734531,0.3784485,1.6342659,0.8941956,2.2863913,1.5458374
			c0.6521254,0.6521301,1.1678972,1.414917,1.5473156,2.287384c0.3774424,0.8729553,0.567152,1.8140869,0.567152,2.8239136
			v24.2941284c0,1.0097961-0.1897097,1.9514465-0.567152,2.8239136c-0.3794184,0.8729553-0.8951902,1.640686-1.5473156,2.3031616
			c-0.6521254,0.6629944-1.4129381,1.1837158-2.2863913,1.5621643c-0.8734527,0.378418-1.8140941,0.5681152-2.8239007,0.5681152
			H2.4298511c-1.0098064,0-1.952424-0.1896973-2.8239007-0.5681152c-0.8734529-0.3784485-1.6421704-0.8991699-2.3041766-1.5621643
			c-0.6620061-0.6624756-1.1837065-1.4302063-1.5611489-2.3031616c-0.3794184-0.872467-0.5691276-1.8141174-0.5691276-2.8239136
			V362.8149109z"/>
		<polygon class="st0" points="38.5556221,352.3398743 34.4857674,352.3398743 23.6950684,356.8835144 23.6950684,360.7641602 
			34.4857674,356.22052 34.4857674,393.7033997 23.6950684,393.7033997 23.6950684,397.5845337 49.3453369,397.5845337 
			49.3453369,393.7033997 38.5556221,393.7033997 		"/>
		<path class="st0" d="M58.4019737,394.9651794c1.0098076,1.0097961,2.193512,1.8041992,3.5501328,2.3822327
			c1.356617,0.57901,2.802166,0.8675232,4.3376198,0.8675232h1.9247589c1.5354614,0,2.9760666-0.2885132,4.3227997-0.8675232
			c1.3457489-0.5780334,2.5235291-1.3724365,3.5333328-2.3822327c1.0098114-1.0088196,1.8032303-2.186615,2.3822403-3.5333252
			c0.5780182-1.3462524,0.8675232-2.7868652,0.8675232-4.3228149v-24.2941284c0-1.5349731-0.289505-2.9760742-0.8675232-4.3223267
			c-0.57901-1.3462524-1.3724289-2.5240173-2.3822403-3.5338135c-1.0098038-1.0098267-2.1875839-1.8032227-3.5333328-2.3822327
			c-1.3467331-0.5780334-2.7873383-0.8675232-4.3227997-0.8675232h-1.9247589c-1.5354538,0-2.9810028,0.2894897-4.3376198,0.8675232
			c-1.3566208,0.57901-2.5403252,1.372406-3.5501328,2.3822327c-1.0098076,1.0097961-1.8032265,2.187561-2.3822327,3.5338135
			c-0.578022,1.3462524-0.867527,2.7873535-0.867527,4.3223267v24.2941284c0,1.5359497,0.289505,2.9765625,0.867527,4.3228149
			C56.5987473,392.7785645,57.3921661,393.9563599,58.4019737,394.9651794z M59.2220726,362.8149109
			c0-1.0098267,0.1897087-1.9509583,0.5681381-2.8239136c0.3784294-0.872467,0.8991432-1.6352539,1.5621376-2.287384
			c0.6620064-0.6516418,1.4297333-1.1673889,2.3031883-1.5458374c0.8724632-0.3789063,1.8140907-0.5681458,2.8239021-0.5681458
			h1.5453415c1.0098038,0,1.9514313,0.1892395,2.8238983,0.5681458c0.8734512,0.3784485,1.6352539,0.8941956,2.2873764,1.5458374
			c0.6521301,0.6521301,1.1679001,1.414917,1.5463257,2.287384c0.3784332,0.8729553,0.5681458,1.8140869,0.5681458,2.8239136
			v24.2941284c0,1.0097961-0.1897125,1.9514465-0.5681458,2.8239136c-0.3784256,0.8729553-0.8941956,1.640686-1.5463257,2.3031616
			c-0.6521225,0.6629944-1.4139252,1.1837158-2.2873764,1.5621643c-0.872467,0.378418-1.8140945,0.5681152-2.8238983,0.5681152
			h-1.5453415c-1.0098114,0-1.9514389-0.1896973-2.8239021-0.5681152c-0.873455-0.3784485-1.6411819-0.8991699-2.3031883-1.5621643
			c-0.6629944-0.6624756-1.1837082-1.4302063-1.5621376-2.3031616c-0.3784294-0.872467-0.5681381-1.8141174-0.5681381-2.8239136
			V362.8149109z"/>
		<polygon class="st0" points="-121.476944,416.9576111 -125.5472946,416.9576111 -136.3374939,421.5007629 
			-136.3374939,425.3808899 -125.5472946,420.8377686 -125.5472946,458.3201599 -136.3374939,458.3201599 -136.3374939,462.2012939 
			-110.6867371,462.2012939 -110.6867371,458.3201599 -121.476944,458.3201599 		"/>
		<path class="st0" d="M-83.9619446,419.5759888c-1.0093155-1.0097961-2.1875839-1.8032227-3.5333405-2.3822327
			c-1.3467331-0.5780029-2.7873383-0.8675232-4.3227997-0.8675232h-1.9247589c-1.5354538,0-2.9814911,0.2895203-4.3381119,0.8675232
			c-1.3566208,0.57901-2.5398331,1.3724365-3.5491409,2.3822327c-1.0098114,1.0097961-1.8042145,2.1875916-2.3822403,3.5333252
			c-0.5790024,1.3467407-0.8675232,2.7873535-0.8675232,4.3228149v24.2946472c0,1.5354614,0.2885208,2.9760437,0.8675232,4.3218079
			c0.5780258,1.3467407,1.3724289,2.5245056,2.3822403,3.5343018c1.0093079,1.0088196,2.1925201,1.8032532,3.5491409,2.3822327
			c1.3566208,0.5780334,2.8026581,0.8675537,4.3381119,0.8675537h1.9247589c1.5354614,0,2.9760666-0.2895203,4.3227997-0.8675537
			c1.3457565-0.5789795,2.524025-1.3734131,3.5333405-2.3822327c1.0098038-1.0097961,1.8032227-2.187561,2.3822327-3.5343018
			c0.5780182-1.3457642,0.8675232-2.7863464,0.8675232-4.3218079v-24.2946472c0-1.5354614-0.289505-2.9760742-0.8675232-4.3228149
			C-82.1587219,421.7635803-82.9521408,420.5857849-83.9619446,419.5759888z M-84.7820435,451.7267761
			c0,1.0088196-0.1892166,1.9504395-0.5681381,2.8238831c-0.3784332,0.872467-0.8942032,1.6401978-1.5458374,2.3031921
			c-0.6521225,0.6620178-1.414917,1.1827087-2.2873764,1.5611572c-0.872963,0.378418-1.8140945,0.5681458-2.8239059,0.5681458
			h-1.5458298c-1.0098038,0-1.9514389-0.1897278-2.8238983-0.5681458c-0.872963-0.3784485-1.6406937-0.8991394-2.3031921-1.5611572
			c-0.6624985-0.6629944-1.1832123-1.4307251-1.5616455-2.3031921c-0.3789215-0.8734436-0.5681381-1.8150635-0.5681381-2.8238831
			v-24.2946472c0-1.0097961,0.1892166-1.9504395,0.5681381-2.8239136c0.3784332-0.872467,0.899147-1.6352539,1.5616455-2.2873535
			c0.6624985-0.6521301,1.4302292-1.1669312,2.3031921-1.5463562c0.8724594-0.378418,1.8140945-0.5671387,2.8238983-0.5671387
			h1.5458298c1.0098114,0,1.950943,0.1887207,2.8239059,0.5671387c0.8724594,0.379425,1.6352539,0.8942261,2.2873764,1.5463562
			c0.6516342,0.6520996,1.1674042,1.4148865,1.5458374,2.2873535c0.3789215,0.8734741,0.5681381,1.8141174,0.5681381,2.8239136
			V451.7267761z"/>
		<polygon class="st0" points="-57.4258766,416.9576111 -61.4962273,416.9576111 -72.2864304,421.5007629 -72.2864304,425.3808899 
			-61.4962273,420.8377686 -61.4962273,458.3201599 -72.2864304,458.3201599 -72.2864304,462.2012939 -46.6356697,462.2012939 
			-46.6356697,458.3201599 -57.4258766,458.3201599 		"/>
		<path class="st0" d="M-19.9108791,419.5759888c-1.0093117-1.0097961-2.1875839-1.8032227-3.5333347-2.3822327
			c-1.3467369-0.5780029-2.7873421-0.8675232-4.3228016-0.8675232h-1.924757c-1.5354595,0-2.9814987,0.2895203-4.3381157,0.8675232
			c-1.3566208,0.57901-2.5398331,1.3724365-3.5491447,2.3822327c-1.0098038,1.0097961-1.8042145,2.1875916-2.3822327,3.5333252
			c-0.57901,1.3467407-0.8675232,2.7873535-0.8675232,4.3228149v24.2946472c0,1.5354614,0.2885132,2.9760437,0.8675232,4.3218079
			c0.5780182,1.3467407,1.3724289,2.5245056,2.3822327,3.5343018c1.0093117,1.0088196,2.192524,1.8032532,3.5491447,2.3822327
			c1.356617,0.5780334,2.8026562,0.8675537,4.3381157,0.8675537h1.924757c1.5354595,0,2.9760647-0.2895203,4.3228016-0.8675537
			c1.3457508-0.5789795,2.5240231-1.3734131,3.5333347-2.3822327c1.0098057-1.0097961,1.8032246-2.187561,2.3822346-3.5343018
			c0.5780201-1.3457642,0.8675232-2.7863464,0.8675232-4.3218079v-24.2946472c0-1.5354614-0.2895031-2.9760742-0.8675232-4.3228149
			C-18.1076546,421.7635803-18.9010735,420.5857849-19.9108791,419.5759888z M-20.7309761,451.7267761
			c0,1.0088196-0.1892147,1.9504395-0.56814,2.8238831c-0.3784294,0.872467-0.8942013,1.6401978-1.5458336,2.3031921
			c-0.6521263,0.6620178-1.4149151,1.1827087-2.2873802,1.5611572c-0.8729572,0.378418-1.8140926,0.5681458-2.8239002,0.5681458
			h-1.5458336c-1.0098057,0-1.9514351-0.1897278-2.8239021-0.5681458c-0.8729553-0.3784485-1.640686-0.8991394-2.3031883-1.5611572
			c-0.6624985-0.6629944-1.1832123-1.4307251-1.5616417-2.3031921c-0.3789253-0.8734436-0.5681381-1.8150635-0.5681381-2.8238831
			v-24.2946472c0-1.0097961,0.1892128-1.9504395,0.5681381-2.8239136c0.3784294-0.872467,0.8991432-1.6352539,1.5616417-2.2873535
			c0.6625023-0.6521301,1.430233-1.1669312,2.3031883-1.5463562c0.872467-0.378418,1.8140965-0.5671387,2.8239021-0.5671387
			h1.5458336c1.0098076,0,1.950943,0.1887207,2.8239002,0.5671387c0.8724651,0.379425,1.6352539,0.8942261,2.2873802,1.5463562
			c0.6516323,0.6520996,1.1674042,1.4148865,1.5458336,2.2873535c0.3789253,0.8734741,0.56814,1.8141174,0.56814,2.8239136
			V451.7267761z"/>
		<polygon class="st0" points="6.6251912,416.9576111 2.5563238,416.9576111 -8.23487,421.5007629 -8.23487,425.3808899 
			2.5563238,420.8377686 2.5563238,458.3201599 -8.23487,458.3201599 -8.23487,462.2012939 17.4149036,462.2012939 
			17.4149036,458.3201599 6.6251912,458.3201599 		"/>
		<path class="st0" d="M44.1401901,419.5759888c-1.0098076-1.0097961-2.1875839-1.8032227-3.5333366-2.3822327
			c-1.3467369-0.5780029-2.7873421-0.8675232-4.3227997-0.8675232h-1.9247589c-1.5354576,0-2.9810028,0.2895203-4.3376217,0.8675232
			c-1.3566189,0.57901-2.5403252,1.3724365-3.5501308,2.3822327c-1.0098076,1.0097961-1.8032265,2.1875916-2.3822346,3.5333252
			c-0.5780201,1.3467407-0.8675251,2.7873535-0.8675251,4.3228149v24.2946472c0,1.5354614,0.289505,2.9760437,0.8675251,4.3218079
			c0.5790081,1.3467407,1.372427,2.5245056,2.3822346,3.5343018c1.0098057,1.0088196,2.193512,1.8032532,3.5501308,2.3822327
			c1.3566189,0.5780334,2.8021641,0.8675537,4.3376217,0.8675537h1.9247589c1.5354576,0,2.9760628-0.2895203,4.3227997-0.8675537
			c1.3457527-0.5789795,2.5235291-1.3734131,3.5333366-2.3822327c1.0098038-1.0097961,1.8032227-2.187561,2.3822327-3.5343018
			c0.578022-1.3457642,0.8675232-2.7863464,0.8675232-4.3218079v-24.2946472c0-1.5354614-0.2895012-2.9760742-0.8675232-4.3228149
			C45.9434128,421.7635803,45.1499939,420.5857849,44.1401901,419.5759888z M43.3200912,451.7267761
			c0,1.0088196-0.1897087,1.9504395-0.5681381,2.8238831c-0.3784332,0.872467-0.8942032,1.6401978-1.5463295,2.3031921
			c-0.6521263,0.6620178-1.4139252,1.1827087-2.2873802,1.5611572c-0.8724632,0.378418-1.8140945,0.5681458-2.8238983,0.5681458
			h-1.5453415c-1.0098038,0-1.9514351-0.1897278-2.8239002-0.5681458c-0.8734531-0.3784485-1.6411819-0.8991394-2.3031883-1.5611572
			c-0.6629944-0.6629944-1.1837063-1.4307251-1.5621357-2.3031921c-0.3784313-0.8734436-0.56814-1.8150635-0.56814-2.8238831
			v-24.2946472c0-1.0097961,0.1897087-1.9504395,0.56814-2.8239136c0.3784294-0.872467,0.8991413-1.6352539,1.5621357-2.2873535
			c0.6620064-0.6521301,1.4297352-1.1669312,2.3031883-1.5463562c0.8724651-0.378418,1.8140965-0.5671387,2.8239002-0.5671387
			h1.5453415c1.0098038,0,1.9514351,0.1887207,2.8238983,0.5671387c0.873455,0.379425,1.6352539,0.8942261,2.2873802,1.5463562
			c0.6521263,0.6520996,1.1678963,1.4148865,1.5463295,2.2873535c0.3784294,0.8734741,0.5681381,1.8141174,0.5681381,2.8239136
			V451.7267761z"/>
		<polygon class="st0" points="70.675766,416.9576111 66.6059113,416.9576111 55.8152084,421.5007629 55.8152084,425.3808899 
			66.6059113,420.8377686 66.6059113,458.3201599 55.8152084,458.3201599 55.8152084,462.2012939 81.465477,462.2012939 
			81.465477,458.3201599 70.675766,458.3201599 		"/>
	</g>
	<g id="XMLID_4_">
		<ellipse id="XMLID_15_" class="st1" cx="13.2633276" cy="380.0321655" rx="63.6860886" ry="68.4625473"/>
		<ellipse id="XMLID_14_" class="st2" cx="13.2633276" cy="380.0321655" rx="63.6860886" ry="68.4625473"/>
		<path id="XMLID_13_" class="st2" d="M53.3293037,433.2365112l73.6707153,73.6707153L53.3293037,433.2365112z"/>
		<ellipse id="XMLID_12_" class="st2" cx="14.4071522" cy="383.1091309" rx="25.7696114" ry="42.3083153"/>
		<path id="XMLID_11_" class="st2" d="M-9.3718548,366.7774353H38.186161H-9.3718548z"/>
		<line id="XMLID_10_" class="st2" x1="-16.7952957" y1="351.6663513" x2="-7.5139661" y2="360.9476929"/>
		<line id="XMLID_9_" class="st2" x1="36.3283272" y1="360.9476929" x2="45.6096573" y2="351.6663513"/>
		<line id="XMLID_8_" class="st2" x1="34.7910614" y1="408.9256897" x2="45.6096573" y2="419.7442932"/>
		<line id="XMLID_7_" class="st2" x1="-5.9767027" y1="408.9256897" x2="-16.7952957" y2="419.7442932"/>
		<line id="XMLID_6_" class="st2" x1="-11.2735996" y1="385.9938049" x2="-27.5020542" y2="385.9938049"/>
		<line id="XMLID_5_" class="st2" x1="56.3166962" y1="385.9938049" x2="40.0879593" y2="385.9938049"/>
	</g>
</g>
</svg>
