<?xml version="1.0" encoding="utf-8"?>
<!-- Generator: Adobe Illustrator 19.0.0, SVG Export Plug-In . SVG Version: 6.00 Build 0)  -->
<svg version="1.1" id="Layer_1" xmlns="http://www.w3.org/2000/svg" xmlns:xlink="http://www.w3.org/1999/xlink" x="0px" y="0px"
	 width="300px" height="300px" viewBox="-155 247 300 300" style="enable-background:new -155 247 300 300;" xml:space="preserve">
<style type="text/css">
	.st0{fill:none;stroke:#4529ed;stroke-width:10;stroke-linecap:round;stroke-linejoin:round;stroke-miterlimit:10;}
	.st1{fill:#0A1219;}
</style>
<g id="XMLID_3_">
	<path id="XMLID_8_" class="st0" d="M-10.8677511,270.417572c4.1206465-0.1317139,29.3627663-0.5569763,44.3167381,17.6647339
		c8.6673012,10.5612488,10.5124054,23.2850647,11.5698814,30.5775146
		c1.6597366,11.4454651,0.4465523,21.0483093-0.8264427,27.2718201c1.0507393,0.8020935,9.0314178,7.1025391,9.0906219,17.3547974
		c0.054287,9.4029541-6.5773926,18.2189636-16.5283966,21.486908c0,0-0.0000763,0.0003662-0.0002289,0.0010986
		c-1.2291489,5.8384705-2.8370934,11.3229065-4.1318436,14.8744507c-3.1824875,8.7297974-8.5380344,16.9330139-9.9170322,19.0076599
		c18.5163174,8.6752014,33.90522,17.0307617,45.866272,23.966156c16.2274246,9.4092102,19.2344894,12.1972961,21.0736923,14.0491333
		c14.9553757,15.058075,19.5665283,35.5454407,22.7265091,49.585144c1.626297,7.2256165,2.4489975,13.2866516,2.8924789,17.3548279
		H-10.8677511H-137c0.4434814-4.0681763,1.2661896-10.1292114,2.8924866-17.3548279
		c3.1599731-14.0397034,7.7711334-34.5270691,22.7265015-49.585144c1.8392029-1.8518372,4.8462677-4.6399231,21.0736923-14.0491333
		c11.9610519-6.9353943,27.3499565-15.2909546,45.866272-23.966156c-1.3789978-2.074646-6.7345428-10.2778625-9.9170341-19.0076599
		c-1.2947464-3.5515442-2.9026947-9.0359802-4.1318436-14.8744507c-0.0001526-0.0007324-0.0002251-0.0010986-0.0002251-0.0010986
		c-9.951004-3.2679443-16.5826874-12.0839539-16.5284042-21.486908c0.0592117-10.2522583,8.0398865-16.5527039,9.0906296-17.3547974
		c-1.272995-6.2235107-2.4861832-15.826355-0.8264465-27.2718201c1.0574799-7.29245,2.9025841-20.0162659,11.5698853-30.5775146
		C-40.2305183,269.8605957-14.9883976,270.2858582-10.8677511,270.417572z"/>
	<g id="XMLID_4_">
		<circle id="XMLID_7_" class="st1" cx="80.963501" cy="462.2423706" r="46.036499"/>
		<circle id="XMLID_6_" class="st0" cx="80.963501" cy="462.2423706" r="46.036499"/>
		<polygon id="XMLID_5_" class="st0" points="56.3088837,462.0241699 72.8907471,478.6060486 105.6181183,445.8786926 
			72.8907471,478.6060486 		"/>
	</g>
</g>
</svg>
