<?xml version="1.0" encoding="utf-8"?>
<!-- Generator: Adobe Illustrator 19.0.0, SVG Export Plug-In . SVG Version: 6.00 Build 0)  -->
<svg version="1.1" id="Layer_1" xmlns="http://www.w3.org/2000/svg" xmlns:xlink="http://www.w3.org/1999/xlink" x="0px" y="0px"
	 width="300px" height="300px" viewBox="-155 247 300 300" style="enable-background:new -155 247 300 300;" xml:space="preserve">
<style type="text/css">
	.st0{fill:none;stroke:#4529ed;stroke-width:10;stroke-linecap:round;stroke-linejoin:round;stroke-miterlimit:10;}
	.st1{fill:#0A1219;}
</style>
<g id="XMLID_3_">
	<g id="XMLID_11_">
		<circle id="XMLID_40_" class="st0" cx="-4.99999" cy="396.4716187" r="68.8934174"/>
		<g id="XMLID_33_">
			<circle id="XMLID_39_" class="st0" cx="-4.99999" cy="300.020813" r="12.0563478"/>
			<circle id="XMLID_38_" class="st0" cx="-27.9644623" cy="277.0563354" r="12.0563478"/>
			<circle id="XMLID_37_" class="st0" cx="17.9644833" cy="277.0563354" r="12.0563478"/>
			<line id="XMLID_36_" class="st0" x1="-4.99999" y1="327.578186" x2="-4.99999" y2="312.077179"/>
			<line id="XMLID_35_" class="st0" x1="-27.9644623" y1="331.5823975" x2="-27.9644623" y2="289.1127014"/>
			<line id="XMLID_34_" class="st0" x1="17.9644833" y1="331.5823975" x2="17.9644833" y2="289.1127014"/>
		</g>
		<g id="XMLID_26_">
			<circle id="XMLID_32_" class="st0" cx="-4.99999" cy="493.979187" r="12.0563478"/>
			<circle id="XMLID_31_" class="st0" cx="17.9644833" cy="516.9436646" r="12.0563478"/>
			<circle id="XMLID_30_" class="st0" cx="-27.9644623" cy="516.9436646" r="12.0563478"/>
			<line id="XMLID_29_" class="st0" x1="-4.99999" y1="465.3650208" x2="-4.99999" y2="481.9228821"/>
			<line id="XMLID_28_" class="st0" x1="17.9644833" y1="461.3608093" x2="17.9644833" y2="504.8873596"/>
			<line id="XMLID_27_" class="st0" x1="-27.9644623" y1="461.3608093" x2="-27.9644623" y2="504.8873596"/>
		</g>
		<g id="XMLID_19_">
			<circle id="XMLID_25_" class="st0" cx="-101.9791718" cy="397" r="12.0563478"/>
			<circle id="XMLID_24_" class="st0" cx="-124.9436417" cy="419.9644775" r="12.0563478"/>
			<circle id="XMLID_23_" class="st0" cx="-124.9436417" cy="374.0355225" r="12.0563478"/>
			<line id="XMLID_22_" class="st0" x1="-74.4217987" y1="397" x2="-89.922821" y2="397"/>
			<line id="XMLID_21_" class="st0" x1="-70.4175949" y1="419.9644775" x2="-112.887291" y2="419.9644775"/>
			<line id="XMLID_20_" class="st0" x1="-70.4175949" y1="374.0355225" x2="-112.887291" y2="374.0355225"/>
		</g>
		<g id="XMLID_12_">
			<circle id="XMLID_18_" class="st0" cx="91.979187" cy="397" r="12.0563478"/>
			<circle id="XMLID_17_" class="st0" cx="114.9436646" cy="374.0355225" r="12.0563478"/>
			<circle id="XMLID_16_" class="st0" cx="114.9436646" cy="419.9644775" r="12.0563478"/>
			<line id="XMLID_15_" class="st0" x1="63.365036" y1="397" x2="79.9228897" y2="397"/>
			<line id="XMLID_14_" class="st0" x1="59.3608284" y1="374.0355225" x2="102.8873672" y2="374.0355225"/>
			<line id="XMLID_13_" class="st0" x1="59.3608284" y1="419.9644775" x2="102.8873672" y2="419.9644775"/>
		</g>
	</g>
	<g id="XMLID_4_">
		<path id="XMLID_10_" class="st0" d="M-23.0845127,388.4840088v-16.3622131c0-9.987793,8.0967093-18.0845032,18.0845051-18.0845032
			h0.0000362c9.9877958,0,18.0845051,8.0967102,18.0845051,18.0845032v16.3622131"/>
		<path id="XMLID_9_" class="st1" d="M29.3510342,398.9136963v30.6192932c0,5.7601624-4.6695347,10.429718-10.4296989,10.429718
			h-47.8426514c-5.7601643,0-10.429697-4.6695557-10.429697-10.429718v-30.6192932
			c0-5.7601624,4.6695328-10.4296875,10.429697-10.4296875h47.8426514
			C24.6814995,388.4840088,29.3510342,393.1535339,29.3510342,398.9136963z"/>
		<path id="XMLID_8_" class="st0" d="M29.3510342,398.9136963v30.6192932c0,5.7601624-4.6695347,10.429718-10.4296989,10.429718
			h-47.8426514c-5.7601643,0-10.429697-4.6695557-10.429697-10.429718v-30.6192932
			c0-5.7601624,4.6695328-10.4296875,10.429697-10.4296875h47.8426514
			C24.6814995,388.4840088,29.3510342,393.1535339,29.3510342,398.9136963z"/>
		<g id="XMLID_5_">
			<circle id="XMLID_7_" class="st0" cx="-4.99999" cy="406.999115" r="6.0760169"/>
			<path id="XMLID_6_" class="st0" d="M-4.99999,413.0751343v8.3246155V413.0751343z"/>
		</g>
	</g>
</g>
</svg>
